<?xml version="1.0" standalone="no"?>
<!DOCTYPE svg PUBLIC "-//W3C//DTD SVG 20010904//EN"
 "http://www.w3.org/TR/2001/REC-SVG-20010904/DTD/svg10.dtd">
<svg version="1.0" xmlns="http://www.w3.org/2000/svg"
 width="20" height="20" viewBox="0 0 512.000000 512.000000"
 preserveAspectRatio="xMidYMid meet">

<g transform="translate(0.000000,512.000000) scale(0.100000,-0.100000)"
fill="#0B5ED7" stroke="none">
<path d="M1641 4784 c-169 -45 -301 -180 -346 -351 -12 -44 -15 -120 -15 -325
l0 -268 43 0 c144 0 363 -57 522 -135 719 -354 934 -1272 449 -1921 l-53 -71
-3 -669 c-2 -501 -6 -676 -15 -697 l-13 -27 1083 0 c1191 0 1138 -3 1258 61
70 38 157 126 193 197 59 116 56 43 56 1554 l0 1388 -428 0 c-463 0 -488 2
-594 56 -71 36 -159 123 -197 193 -59 111 -61 133 -61 603 l0 428 -912 -1
c-764 0 -922 -3 -967 -15z m1485 -970 c53 -39 69 -71 69 -134 0 -63 -16 -95
-69 -134 -26 -20 -43 -21 -304 -24 -178 -2 -290 1 -314 7 -101 30 -140 169
-71 252 49 57 60 59 375 56 272 -2 288 -3 314 -23z m960 -800 c53 -39 69 -71
69 -134 0 -63 -16 -95 -69 -134 -27 -20 -40 -21 -544 -24 -345 -2 -529 0 -554
8 -101 29 -140 168 -71 251 51 60 39 59 615 56 514 -2 527 -2 554 -23z m0
-800 c53 -39 69 -71 69 -134 0 -63 -16 -95 -69 -134 -27 -20 -40 -21 -544 -24
-345 -2 -529 0 -554 8 -101 29 -140 168 -71 251 51 60 39 59 615 56 514 -2
527 -2 554 -23z m0 -800 c53 -39 69 -71 69 -134 0 -63 -16 -95 -69 -134 -27
-21 -39 -21 -704 -24 -457 -2 -689 0 -714 8 -101 29 -140 168 -71 251 51 61
25 59 775 56 676 -2 687 -2 714 -23z"/>
<path d="M3840 4337 c0 -288 3 -375 14 -400 17 -42 68 -85 109 -92 18 -3 191
-4 385 -3 l352 3 -430 430 -430 430 0 -368z"/>
<path d="M1113 3505 c-201 -36 -383 -134 -524 -283 -359 -375 -357 -956 5
-1330 169 -176 393 -276 641 -289 455 -23 853 273 977 726 31 110 31 352 0
462 -103 377 -397 649 -769 714 -102 18 -232 18 -330 0z"/>
<path d="M640 950 c0 -556 -1 -545 65 -595 38 -30 82 -40 132 -30 32 6 68 36
241 208 l202 201 203 -201 c172 -172 208 -202 240 -208 50 -10 94 0 132 30 66
50 65 40 65 593 l0 501 -95 -45 c-184 -86 -332 -118 -545 -118 -238 -1 -394
40 -632 162 -5 2 -8 -222 -8 -498z"/>
</g>
</svg>
